:version 1.10
:name ASF
:units
  mass 1
  length 1
  angle deg
:documentation
  ASF file generated by Kaydara
:root
  axis xyz
  order  tx ty tz rx ry rz
  position 0 0 0
  orientation 0 0 0
:bonedata
  begin
    id 1
    name RightUpLegDummy
    direction -1 2.30186e-007 8.31532e-007
    length 4.04083
    axis 0 0 0 xyz
  end
  begin
    id 2
    name RightUpLeg
    direction -0.000919234 -0.999985 0.00544864
    length 17.4221
    axis -3.80308 -0.00076134 -0.0523649 xyz
    dof rx ry rz
  end
  begin
    id 3
    name RightLeg
    direction -0.000919271 -0.999984 -0.00555045
    length 17.1239
    axis 4.00314 0.0181274 -0.183583 xyz
    dof rx ry rz
  end
  begin
    id 4
    name RightFoot
    direction -2.57843e-005 -4.04509e-007 1
    length 6.72091
    axis 8.18909e-005 -0.122003 -0.403008 xyz
    dof rx ry rz
  end
  begin
    id 5
    name RightToes
    direction 0.00116825 -0.014069 0.9999
    length 3.85082
    axis 0.000514414 0.540638 -0.356797 xyz
    dof rx ry rz
  end
  begin
    id 6
    name SpineDummy
    direction 0.0168869 0.966876 -0.254689
    length 6.99894
    axis 0 0 0 xyz
  end
  begin
    id 7
    name Spine
    direction -0.0132008 0.999903 0.00446247
    length 11.1999
    axis -0.00148109 0.00725429 0.756411 xyz
    dof rx ry rz
  end
  begin
    id 8
    name Spine1
    direction 0 0 0
    length 0
    axis -0.000934958 0.0245693 1.46543 xyz
    dof rx ry rz
  end
  begin
    id 9
    name HEadDummy
    direction -0.0255732 0.999672 0.00128215
    length 3.43865
    axis -0.000934958 0.0245693 1.46543 xyz
  end
  begin
    id 10
    name HEad
    direction -0.0472656 0.980052 0.19304
    length 5.12695
    axis -0.000934954 0.0245693 1.46543 xyz
    dof rx ry rz
  end
  begin
    id 11
    name LeftShoulder1Dummy
    direction 0.953098 0.301717 -0.023914
    length 3.68488
    axis -0.000934958 0.0245693 1.46543 xyz
  end
  begin
    id 12
    name LeftShoulder1
    direction 0.962466 0.271167 0.0112566
    length 3.13809
    axis -0.000934958 0.0245693 1.46543 xyz
    dof rx ry rz
  end
  begin
    id 13
    name LeftArm
    direction 0.999943 0.00455037 -0.00961766
    length 11.3419
    axis -23.1648 0.685459 1.22814 xyz
    dof rx ry rz
  end
  begin
    id 14
    name LeftForeArm
    direction 0.999332 0.0131969 0.0340885
    length 8.70632
    axis -9.90633 0.618216 0.0826942 xyz
    dof rx ry rz
  end
  begin
    id 15
    name LeftHand
    direction 0.994373 -0.0366703 0.0993905
    length 5.32135
    axis 0.00675269 0.680415 0.445699 xyz
    dof rx ry rz
  end
  begin
    id 16
    name RightShoulderDummy
    direction -0.967298 0.252589 -0.0230903
    length 3.68488
    axis -0.000934958 0.0245693 1.46543 xyz
  end
  begin
    id 17
    name RightShoulder
    direction -0.975062 0.221602 0.0120823
    length 3.13809
    axis 0.216257 0.0246515 1.45863 xyz
    dof rx ry rz
  end
  begin
    id 18
    name RightArm
    direction -0.99886 -0.00851186 -0.0469687
    length 10.3947
    axis -23.196 0.23503 -0.532632 xyz
    dof rx ry rz
  end
  begin
    id 19
    name RightForeArm
    direction -0.99909 0.00114866 0.0426317
    length 8.68355
    axis -9.91764 -0.134943 0.610517 xyz
    dof rx ry rz
  end
  begin
    id 20
    name RightHand
    direction -0.992888 -0.0489538 0.10852
    length 5.28593
    axis -0.00275396 -0.197403 0.246414 xyz
    dof rx ry rz
  end
  begin
    id 21
    name LeftUpLegDummy
    direction 1 -2.30186e-007 -8.31532e-007
    length 4.04083
    axis 0 0 0 xyz
  end
  begin
    id 22
    name LeftUpLeg
    direction -0.000920097 -1 2.79241e-006
    length 17.4221
    axis -3.48782 0.00143434 -0.0532288 xyz
    dof rx ry rz
  end
  begin
    id 23
    name LeftLeg
    direction -0.000920097 -1 2.7912e-006
    length 17.1239
    axis 3.68162 -0.00806512 -0.0529896 xyz
    dof rx ry rz
  end
  begin
    id 24
    name LeftFoot
    direction -2.57845e-005 -3.987e-007 1
    length 6.72091
    axis 3.02372e-005 -0.00147829 -0.214229 xyz
    dof rx ry rz
  end
  begin
    id 25
    name LeftToes
    direction 0.00813577 -0.00488255 0.999955
    length 3.85048
    axis 3.89895e-005 -0.0014783 -0.214229 xyz
    dof rx ry rz
  end
:hierarchy
  begin
    root RightUpLegDummy SpineDummy LeftUpLegDummy
    RightUpLegDummy RightUpLeg
    RightUpLeg RightLeg
    RightLeg RightFoot
    RightFoot RightToes
    SpineDummy Spine
    Spine Spine1
    Spine1 HEadDummy LeftShoulder1Dummy RightShoulderDummy
    HEadDummy HEad
    LeftShoulder1Dummy LeftShoulder1
    LeftShoulder1 LeftArm
    LeftArm LeftForeArm
    LeftForeArm LeftHand
    RightShoulderDummy RightShoulder
    RightShoulder RightArm
    RightArm RightForeArm
    RightForeArm RightHand
    LeftUpLegDummy LeftUpLeg
    LeftUpLeg LeftLeg
    LeftLeg LeftFoot
    LeftFoot LeftToes
  end

:SAMPLES-PER-SECOND 30
:FULLY-SPECIFIED
:DEGREES
57
root  -35.5534 34.9631 2.52348 -166.955 74.2214 -173.985
RightUpLeg  -5.893 -9.36081 -1.04508
RightLeg  1.28709 3.34227 -0.13931
RightFoot  9.59961 0.00397604 0.683172
RightToes  -28.4171 -0.129252 -0.239899
Spine  -2.51905 0.331556 -1.2818
Spine1  -4.89995 0.766484 -1.70503
HEad  -67.0685 -12.3529 7.12078
LeftShoulder1  -1.94126e-019 -3.10601e-018 -2.51263e-017
LeftArm  -26.411 18.343 -68.7519
LeftForeArm  27.1784 -76.1601 -54.7836
LeftHand  -0.0409459 5.11032 9.48386
RightShoulder  -4.96962e-017 0 -2.36833e-017
RightArm  -32.4547 -15.8448 66.5319
RightForeArm  76.9407 79.5366 67.7099
RightHand  -0.249869 -2.42044 -9.44122
LeftUpLeg  -6.84411 9.30973 -2.52741
LeftLeg  9.80486 21.2008 2.22037
LeftFoot  -0.50334 -0.00136262 -0.0337466
LeftToes  -9.57138 1.89912e-006 4.45198e-008
58
root  -35.6274 34.959 2.42044 -166.896 74.326 -173.904
RightUpLeg  -6.10312 -9.09905 -1.22295
RightLeg  1.57305 3.17083 -0.116254
RightFoot  9.63072 0.00623105 0.657271
RightToes  -28.6157 -0.129862 -0.240907
Spine  -2.46042 0.350207 -1.34444
Spine1  -4.78947 0.798268 -1.85101
HEad  -67.1512 -12.3557 7.15492
LeftShoulder1  -1.94126e-019 -3.10601e-018 -2.51263e-017
LeftArm  -26.2406 18.6104 -68.8827
LeftForeArm  29.2075 -76.4575 -56.5919
LeftHand  -0.0417847 5.09969 9.49177
RightShoulder  -4.96962e-017 0 -2.36833e-017
RightArm  -32.5759 -15.968 66.7796
RightForeArm  76.2831 79.4959 67.356
RightHand  -0.253791 -2.33641 -9.34249
LeftUpLeg  -6.86358 9.3972 -2.72443
LeftLeg  9.75991 21.2158 2.20545
LeftFoot  -0.631958 -0.00135604 -0.0843533
LeftToes  -9.09895 1.89912e-006 4.45198e-008
59
root  -35.7069 34.9527 2.3276 -166.981 74.4959 -173.973
RightUpLeg  -6.42918 -8.84918 -1.43139
RightLeg  2.04134 3.05371 -0.0868756
RightFoot  9.49345 0.00844221 0.631205
RightToes  -28.5345 -0.130387 -0.241706
Spine  -2.39101 0.382685 -1.42111
Spine1  -4.6613 0.851742 -2.04385
HEad  -66.9417 -12.3075 7.22259
LeftShoulder1  -1.94126e-019 -3.10601e-018 -2.51263e-017
LeftArm  -25.8818 19.0165 -68.9261
LeftForeArm  32.3107 -76.8411 -59.07
LeftHand  -0.0483556 5.01831 9.59949
RightShoulder  -4.96962e-017 0 -2.36833e-017
RightArm  -32.9696 -16.0594 67.1151
RightForeArm  74.6133 79.3983 66.7979
RightHand  -0.238302 -2.33697 -8.74589
LeftUpLeg  -6.88635 9.64779 -2.96297
LeftLeg  9.67884 21.1497 2.16938
LeftFoot  -0.694759 -0.00163449 -0.108048
LeftToes  -8.82973 1.89912e-006 4.45198e-008
60
root  -35.7901 34.9453 2.23765 -167.046 74.5645 -174.027
RightUpLeg  -6.78459 -8.4739 -1.61781
RightLeg  2.59535 2.73095 -0.0511364
RightFoot  9.31117 0.0129642 0.571321
RightToes  -28.6154 -0.13083 -0.242199
Spine  -2.29677 0.386187 -1.48374
Spine1  -4.4828 0.846754 -2.22394
HEad  -66.9622 -12.1986 7.175
LeftShoulder1  -1.94126e-019 -3.10601e-018 -2.51263e-017
LeftArm  -25.4956 19.3641 -68.996
LeftForeArm  35.6375 -77.2075 -61.7468
LeftHand  -0.0566066 4.91433 9.61815
RightShoulder  -4.96962e-017 0 -2.36833e-017
RightArm  -33.4261 -16.0608 67.4169
RightForeArm  71.7204 79.2046 65.2415
RightHand  -0.21506 -2.61225 -8.5883
LeftUpLeg  -6.92927 9.85767 -3.17403
LeftLeg  9.60215 21.0117 2.12812
LeftFoot  -0.792572 -0.000742208 -0.143862
LeftToes  -8.33333 1.89912e-006 4.45198e-008
61
root  -35.8777 34.9349 2.15263 -167.248 74.6562 -174.278
RightUpLeg  -7.38828 -8.16069 -1.84763
RightLeg  3.511 2.49264 -0.00664163
RightFoot  8.96391 0.0168599 0.519558
RightToes  -28.67 -0.131196 -0.242294
Spine  -2.23235 0.405657 -1.57502
Spine1  -4.3629 0.875167 -2.4435
HEad  -66.9178 -12.1756 7.0573
LeftShoulder1  -1.94126e-019 -3.10601e-018 -2.51263e-017
LeftArm  -25.0928 19.6144 -69.0557
LeftForeArm  38.2357 -77.4663 -63.8917
LeftHand  -0.0611903 4.85253 9.53766
RightShoulder  -4.96962e-017 0 -2.36833e-017
RightArm  -33.8537 -16.0654 67.665
RightForeArm  68.098 78.9196 62.753
RightHand  -0.19364 -2.9099 -8.55526
LeftUpLeg  -7.04206 9.93752 -3.4526
LeftLeg  9.5478 21.0127 2.10856
LeftFoot  -0.87348 -7.42746e-005 -0.175114
LeftToes  -7.94574 1.89912e-006 4.45198e-008
62
root  -35.9658 34.9237 2.07548 -167.488 74.7252 -174.613
RightUpLeg  -8.26114 -7.82225 -2.08359
RightLeg  4.85992 2.21156 0.0464247
RightFoot  8.51664 0.0211698 0.461038
RightToes  -28.6675 -0.13149 -0.241894
Spine  -2.18398 0.430573 -1.68698
Spine1  -4.27275 0.918681 -2.66558
HEad  -66.8259 -12.196 6.92981
LeftShoulder1  -1.94126e-019 -3.10601e-018 -2.51263e-017
LeftArm  -24.5869 19.7366 -69.0607
LeftForeArm  39.7957 -77.6104 -65.1973
LeftHand  -0.0734064 4.69049 9.44772
RightShoulder  -4.96962e-017 0 -2.36833e-017
RightArm  -34.2219 -16.0437 67.8425
RightForeArm  64.3905 78.5445 59.4003
RightHand  -0.178838 -3.15097 -8.65792
LeftUpLeg  -7.20475 9.94871 -3.74369
LeftLeg  9.49608 21.0646 2.09477
LeftFoot  -0.901223 -0.000595802 -0.186724
LeftToes  -7.6585 1.89912e-006 4.45198e-008
63
root  -36.0407 34.9163 2.00745 -167.601 74.7633 -174.773
RightUpLeg  -9.0371 -7.44669 -2.24499
RightLeg  6.11716 1.8032 0.0777266
RightFoot  8.20972 0.0260099 0.394085
RightToes  -28.4297 -0.131715 -0.240905
Spine  -2.12713 0.447238 -1.76412
Spine1  -4.16563 0.948201 -2.81873
HEad  -66.7788 -12.2164 6.7478
LeftShoulder1  -1.94126e-019 -3.10601e-018 -2.51263e-017
LeftArm  -24.2008 19.8147 -69.1287
LeftForeArm  40.8956 -77.6945 -65.8696
LeftHand  -0.0779701 4.61793 9.26395
RightShoulder  -4.96962e-017 0 -2.36833e-017
RightArm  -34.3189 -16.045 67.8632
RightForeArm  61.1354 78.1535 56.3506
RightHand  -0.165698 -3.37209 -8.80114
LeftUpLeg  -7.27291 10.0488 -3.952
LeftLeg  9.35855 20.9915 2.03815
LeftFoot  -0.91535 -0.00152047 -0.190832
LeftToes  -7.36271 1.89912e-006 4.45198e-008
64
root  -36.1023 34.9139 1.94519 -167.684 74.7468 -174.917
RightUpLeg  -9.65861 -7.3297 -2.35262
RightLeg  7.08908 1.47383 0.0888212
RightFoot  7.95803 0.0296676 0.343152
RightToes  -28.0054 -0.131877 -0.237867
Spine  -2.09393 0.458868 -1.82008
Spine1  -4.10274 0.968543 -2.92919
HEad  -66.8239 -12.2375 6.53248
LeftShoulder1  -1.94126e-019 -3.10601e-018 -2.51263e-017
LeftArm  -23.7639 19.8117 -69.2088
LeftForeArm  41.1434 -77.6757 -65.2782
LeftHand  -0.0784032 4.50677 9.23545
RightShoulder  -4.96962e-017 0 -2.36833e-017
RightArm  -34.2845 -16.1764 67.8131
RightForeArm  58.8985 77.869 54.4693
RightHand  -0.155365 -3.47183 -8.60042
LeftUpLeg  -7.35022 10.1442 -4.13187
LeftLeg  9.23791 20.8852 1.98494
LeftFoot  -0.885679 -0.00348652 -0.177438
LeftToes  -7.12851 1.89912e-006 4.45198e-008
65
root  -36.1482 34.9133 1.88697 -167.646 74.5177 -174.939
RightUpLeg  -9.94076 -7.68757 -2.38391
RightLeg  7.47202 1.41637 0.0949076
RightFoot  7.93943 0.0302446 0.335342
RightToes  -27.8096 -0.13198 -0.236318
Spine  -2.06992 0.415345 -1.85147
Spine1  -4.05674 0.880759 -2.98959
HEad  -66.8312 -12.2423 6.35783
LeftShoulder1  -1.94126e-019 -3.10601e-018 -2.51263e-017
LeftArm  -23.3393 19.8435 -69.2407
LeftForeArm  40.8437 -77.6324 -64.7109
LeftHand  -0.0794302 4.44153 9.21041
RightShoulder  -4.96962e-017 0 -2.36833e-017
RightArm  -34.206 -16.4047 67.7643
RightForeArm  57.8656 77.7239 53.5447
RightHand  -0.155195 -3.42168 -8.37591
LeftUpLeg  -7.42968 9.91962 -4.23162
LeftLeg  9.15168 20.8777 1.95329
LeftFoot  -0.869944 -0.00489168 -0.171364
LeftToes  -6.86529 1.89912e-006 4.45198e-008
66
root  -36.1881 34.9134 1.83791 -167.507 74.3888 -174.848
RightUpLeg  -9.98576 -7.92629 -2.40417
RightLeg  7.38492 1.42473 0.0932855
RightFoot  8.143 0.0297945 0.341303
RightToes  -27.9516 -0.132028 -0.234976
Spine  -2.05429 0.415804 -1.86024
Spine1  -4.02839 0.881844 -3.00704
HEad  -66.8653 -12.1989 6.20158
LeftShoulder1  -1.94126e-019 -3.10601e-018 -2.51263e-017
LeftArm  -22.9812 19.8609 -69.3036
LeftForeArm  39.9442 -77.539 -63.7726
LeftHand  -0.0834221 4.47324 9.11946
RightShoulder  -4.96962e-017 0 -2.36833e-017
RightArm  -34.0399 -16.6439 67.7064
RightForeArm  57.9589 77.6958 53.1965
RightHand  -0.156742 -3.38479 -8.3186
LeftUpLeg  -7.50501 9.99575 -4.2998
LeftLeg  9.08486 20.6994 1.91355
LeftFoot  -0.860777 -0.00623212 -0.164817
LeftToes  -6.81136 1.89912e-006 4.45198e-008
67
root  -36.2085 34.9139 1.79015 -167.363 74.0854 -174.827
RightUpLeg  -9.84117 -8.4269 -2.41041
RightLeg  6.9032 1.5929 0.0907199
RightFoot  8.37311 0.0276736 0.370215
RightToes  -28.1213 -0.132025 -0.233827
Spine  -2.06777 0.375255 -1.8614
Spine1  -4.05239 0.801921 -3.00808
HEad  -66.8852 -12.2332 6.03475
LeftShoulder1  -1.94126e-019 -3.10601e-018 -2.51263e-017
LeftArm  -22.6037 19.8675 -69.3183
LeftForeArm  39.3274 -77.4668 -63.0606
LeftHand  -0.0840003 4.44421 9.1333
RightShoulder  -4.96962e-017 0 -2.36833e-017
RightArm  -33.9975 -16.9068 67.6976
RightForeArm  58.5711 77.7346 53.2373
RightHand  -0.165783 -3.27768 -8.42251
LeftUpLeg  -7.683 9.88117 -4.35685
LeftLeg  9.13194 20.5189 1.91421
LeftFoot  -0.928974 -0.00561003 -0.187213
LeftToes  -6.48415 1.89912e-006 4.45198e-008
